<svg width="862" height="862" viewBox="0 0 862 862" fill="none" xmlns="http://www.w3.org/2000/svg">
<path d="M181.57 128H171.047C159.423 128 150 137.423 150 149.047V701.524C150 713.148 159.423 722.571 171.047 722.571H181.57C193.194 722.571 202.617 713.148 202.617 701.524V149.047C202.617 137.423 193.194 128 181.57 128Z" fill="#12283F"/>
<path d="M691.953 128H681.43C669.806 128 660.383 137.423 660.383 149.047V701.524C660.383 713.148 669.806 722.571 681.43 722.571H691.953C703.577 722.571 713 713.148 713 701.524V149.047C713 137.423 703.577 128 691.953 128Z" fill="#12283F"/>
<path d="M268.389 335.836L422.269 250.827C430.225 246.432 439.888 246.455 447.823 250.888L599.875 335.837L435.063 430.55L268.389 335.836Z" fill="#A79DFD"/>
<path d="M602.126 343.73V381.632C602.126 390.775 597.375 399.263 589.587 404.049L439.393 496.319V440.718L602.126 343.73Z" fill="#E5662F"/>
<path d="M531.472 517.365V556.122C531.472 564.799 527.194 572.912 520.044 577.822L439.393 633.122V577.522L531.472 517.365Z" fill="#E5662F"/>
<path d="M568.304 427.917V466.296C568.304 475.177 563.821 483.465 556.381 488.321L439.393 564.721V509.121L568.304 427.917Z" fill="#E5662F"/>
<path d="M267.423 343.73L268.313 519.26C268.36 528.478 273.229 537.002 281.147 541.722L430.535 630.807L430.154 440.718L267.423 343.73Z" fill="#12283F"/>
</svg>
